<?xml version="1.0" encoding="UTF-8"?>
<svg version="1.1" xmlns="http://www.w3.org/2000/svg" width="400" height="400">
<path d="M0 0 C132 0 264 0 400 0 C400 132 400 264 400 400 C268 400 136 400 0 400 C0 268 0 136 0 0 Z " fill="#DDDDDD" transform="translate(0,0)"/>
<path d="M0 0 C0 0.66 0 1.32 0 2 C0.6909375 2.10441406 1.381875 2.20882812 2.09375 2.31640625 C19.98802181 6.52540836 39.60344181 23.53774866 50 38 C50 38.99 50 39.98 50 41 C46.33606817 42.71383583 42.66986349 44.42269839 39.00146484 46.12695312 C37.75343107 46.70761521 36.50603071 47.28964069 35.25927734 47.87304688 C33.4687886 48.71060247 31.6758337 49.54287966 29.8828125 50.375 C28.80402832 50.87773437 27.72524414 51.38046875 26.61376953 51.8984375 C24 53 24 53 22 53 C21.566875 51.9275 21.13375 50.855 20.6875 49.75 C15.59875805 39.62646035 6.46122483 31.87352838 -3 26 C-3.75410156 25.47921875 -4.50820312 24.9584375 -5.28515625 24.421875 C-11.56439602 20.27065806 -18.09927127 18.14667182 -25.265625 16.078125 C-27.56357426 15.41470032 -29.84956346 14.70542775 -32.109375 13.921875 C-37.72581512 12.13068599 -43.25757172 11.82116178 -49.1171875 11.76171875 C-49.8920047 11.753647 -50.6668219 11.74557526 -51.46511841 11.73725891 C-53.10400195 11.72347737 -54.74291347 11.71272891 -56.38183594 11.70483398 C-58.02612982 11.69340186 -59.67038922 11.67309193 -61.31445312 11.64331055 C-77.06148701 11.35893615 -90.83402649 13.6379865 -105 21 C-105.91265625 21.45246094 -106.8253125 21.90492187 -107.765625 22.37109375 C-113.68080358 25.41955869 -118.73950422 28.95648135 -123.80859375 33.265625 C-125.81388793 34.85270275 -127.67381544 35.96143013 -130 37 C-130 37.66 -130 38.32 -130 39 C-131.4337162 40.17611182 -132.86941254 41.34990775 -134.31591797 42.51025391 C-137.18874461 45.05156851 -139.33718207 48.08128597 -141.5625 51.1875 C-142.28191772 52.18160889 -142.28191772 52.18160889 -143.01586914 53.19580078 C-146.59412704 58.23041881 -149.53597342 63.32882771 -152 69 C-152.36609375 69.76828125 -152.7321875 70.5365625 -153.109375 71.328125 C-162.64156563 91.63583547 -161.91568115 120.20961824 -154.93359375 141.20703125 C-151.31783496 150.50299197 -146.36971894 159.32009817 -140 167 C-135.76352551 165.69068735 -131.96734186 164.06975321 -128.05078125 161.99609375 C-126.95572266 161.42052734 -125.86066406 160.84496094 -124.73242188 160.25195312 C-123.60384766 159.65318359 -122.47527344 159.05441406 -121.3125 158.4375 C-119.05962316 157.24674825 -116.80576232 156.05785579 -114.55078125 154.87109375 C-113.55731689 154.34443115 -112.56385254 153.81776855 -111.5402832 153.27514648 C-109 152 -109 152 -106 151 C-106.495 150.05125 -106.99 149.1025 -107.5 148.125 C-109 145 -109 145 -109 143 C-108.35450195 142.94465088 -107.70900391 142.88930176 -107.04394531 142.83227539 C-104.11233145 142.57901389 -101.18117319 142.32080964 -98.25 142.0625 C-97.23421875 141.97548828 -96.2184375 141.88847656 -95.171875 141.79882812 C-93.70234375 141.66831055 -93.70234375 141.66831055 -92.203125 141.53515625 C-91.30239258 141.456604 -90.40166016 141.37805176 -89.47363281 141.29711914 C-87.23498447 141.02822504 -85.17932573 140.55691323 -83 140 C-81.08438746 139.93311409 -79.16664408 139.91468281 -77.25 139.9375 C-76.26515625 139.94652344 -75.2803125 139.95554688 -74.265625 139.96484375 C-73.14414062 139.98224609 -73.14414062 139.98224609 -72 140 C-73.38202753 143.67792958 -75.04695094 147.00918132 -77.00390625 150.4140625 C-77.57947266 151.42210937 -78.15503906 152.43015625 -78.74804688 153.46875 C-79.34681641 154.5103125 -79.94558594 155.551875 -80.5625 156.625 C-81.75372424 158.69913161 -82.94263709 160.77459293 -84.12890625 162.8515625 C-84.65556885 163.76760254 -85.18223145 164.68364258 -85.72485352 165.62744141 C-87.10754988 168.03836128 -87.10754988 168.03836128 -88 171 C-88.99 171 -89.98 171 -91 171 C-91.33 169.68 -91.66 168.36 -92 167 C-100.16679815 170.13119647 -107.9927168 173.80474236 -115.84765625 177.640625 C-116.74355469 178.07375 -117.63945312 178.506875 -118.5625 178.953125 C-119.77099609 179.54335449 -119.77099609 179.54335449 -121.00390625 180.14550781 C-123 181 -123 181 -125 181 C-125 181.99 -125 182.98 -125 184 C-124.47664063 184.24105469 -123.95328125 184.48210937 -123.4140625 184.73046875 C-120.26455719 186.386762 -117.34172872 188.35543095 -114.375 190.3125 C-106.70213335 195.28855185 -99.34622872 199.95513967 -90.203125 201.54296875 C-88 202 -88 202 -85.08203125 202.98046875 C-66.42639756 209.151724 -40.27901937 208.31219282 -22.3359375 200.0625 C-20.30782764 199.14001525 -18.30935242 198.39578846 -16.2109375 197.65625 C-11.91169496 196.05764715 -8.12274352 193.94179435 -4.25 191.5 C-3.55898193 191.06494141 -2.86796387 190.62988281 -2.15600586 190.18164062 C4.60569769 185.80040048 10.352798 180.72139882 16 175 C16.81082031 174.18789063 17.62164062 173.37578125 18.45703125 172.5390625 C24.37473281 166.30884178 28.77124287 159.45596653 33 152 C33.4846875 151.19046875 33.969375 150.3809375 34.46875 149.546875 C44.04298968 132.38329898 42.7979833 112.02962518 43 93 C42.28271729 93.41137207 41.56543457 93.82274414 40.82641602 94.24658203 C37.40584082 96.20733129 33.98446605 98.16667945 30.5625 100.125 C29.93884552 100.48192932 29.31519104 100.83885864 28.67263794 101.206604 C18.39460462 107.08611084 8.0822388 112.9004361 -2.26538086 118.65673828 C-3.24128174 119.20056152 -4.21718262 119.74438477 -5.22265625 120.3046875 C-6.07609619 120.77890137 -6.92953613 121.25311523 -7.80883789 121.74169922 C-9.58049343 122.75909338 -11.30012018 123.86674679 -13 125 C-12.855625 125.5775 -12.71125 126.155 -12.5625 126.75 C-12.04166667 128.83333333 -11.52083333 130.91666667 -11 133 C-24.86 133 -38.72 133 -53 133 C-50.75234131 126.25702393 -50.75234131 126.25702393 -48.828125 122.8984375 C-48.41369141 122.16633057 -47.99925781 121.43422363 -47.57226562 120.67993164 C-46.91774414 119.53899048 -46.91774414 119.53899048 -46.25 118.375 C-42.69494403 112.09016892 -39.30166632 105.78629289 -36.15625 99.28515625 C-35 97 -35 97 -33 94 C-32.34 94 -31.68 94 -31 94 C-29.02 97.465 -29.02 97.465 -27 101 C-22.32664045 99.27175836 -17.99877799 96.99065234 -13.59375 94.68359375 C-11.94673304 93.82854783 -10.29959389 92.97373725 -8.65234375 92.11914062 C-6.07037223 90.7765056 -3.48944043 89.43197728 -0.91064453 88.08325195 C1.58795985 86.77777996 4.09051483 85.48015884 6.59375 84.18359375 C7.36158813 83.77942734 8.12942627 83.37526093 8.92053223 82.95884705 C12.59845141 81.0602816 15.83113013 79.50358381 20 79 C20 78.34 20 77.68 20 77 C20.95559814 76.52473877 21.91119629 76.04947754 22.89575195 75.55981445 C32.30805576 70.87076385 41.68414197 66.11527354 51.03149414 61.2980957 C53.22378624 60.16880833 55.41753125 59.04237646 57.61132812 57.91601562 C59.02612958 57.18767075 60.44084642 56.45916147 61.85546875 55.73046875 C62.50130417 55.39919479 63.14713959 55.06792084 63.81254578 54.72660828 C66.54053535 53.31791695 69.20459175 51.87432752 71.8215332 50.2668457 C74 49 74 49 76 49 C76.50688605 51.54046458 77.00566874 54.08208876 77.5 56.625 C77.64308594 57.33785156 77.78617187 58.05070312 77.93359375 58.78515625 C79.54055275 67.12603866 79.54055275 67.12603866 79 71 C77.03125 72.8984375 77.03125 72.8984375 74.5 74.375 C73.6646875 74.87773437 72.829375 75.38046875 71.96875 75.8984375 C71.3190625 76.26195312 70.669375 76.62546875 70 77 C70.20496094 78.05058594 70.40992188 79.10117188 70.62109375 80.18359375 C77.12062148 113.84544676 73.4540956 145.01736778 54 174 C51.45896398 177.44890132 48.77876945 180.74081461 46 184 C45.06220703 185.13888672 45.06220703 185.13888672 44.10546875 186.30078125 C25.58592081 208.13951497 -2.87620979 222.63013777 -31.22802734 225.77294922 C-47.46608554 227.10299978 -64.13693666 226.97029814 -80 223 C-80.76038574 222.81195801 -81.52077148 222.62391602 -82.30419922 222.43017578 C-104.69271103 216.65501482 -122.9533021 204.4404819 -139 188 C-139.71542969 188.29261719 -140.43085938 188.58523438 -141.16796875 188.88671875 C-146.04063787 190.80218178 -151.02221569 192.38152488 -156 194 C-157.24652344 194.40605469 -158.49304688 194.81210937 -159.77734375 195.23046875 C-166.65670435 197.44278918 -173.56596822 199.50186449 -180.5625 201.3125 C-181.82191406 201.63863281 -183.08132812 201.96476563 -184.37890625 202.30078125 C-188.01358342 203.0026229 -191.30830176 203.12828295 -195 203 C-195 203.66 -195 204.32 -195 205 C-201.35035638 206.11108654 -207.6244395 206.25372282 -214.0625 206.3125 C-215.12533203 206.34150391 -216.18816406 206.37050781 -217.28320312 206.40039062 C-223.53973065 206.45119316 -227.25059374 206.20349749 -232 202 C-234 200 -234 200 -234.5625 197.0625 C-234.28242525 188.08143628 -225.16136138 178.89065131 -219 173 C-208.15041377 164.01647655 -195.93862594 158.32502987 -183 153 C-181.52853516 152.37351563 -181.52853516 152.37351563 -180.02734375 151.734375 C-179.15207031 151.36828125 -178.27679688 151.0021875 -177.375 150.625 C-176.61960938 150.30789062 -175.86421875 149.99078125 -175.0859375 149.6640625 C-173 149 -173 149 -169 149 C-168.34 151.64 -167.68 154.28 -167 157 C-167.680625 157.1959375 -168.36125 157.391875 -169.0625 157.59375 C-182.37595822 161.70109349 -201.23844639 168.72533854 -209 181 C-209.33425735 183.62625139 -209.33425735 183.62625139 -209 186 C-207.34626869 187.65373131 -205.44243571 187.1837169 -203.16796875 187.20703125 C-197.00079479 187.14823932 -191.30215476 186.07831139 -185.3125 184.6875 C-184.33216797 184.47416016 -183.35183594 184.26082031 -182.34179688 184.04101562 C-173.27611327 182.00685353 -165.06619611 178.64739301 -156.5390625 174.98828125 C-154 174 -154 174 -152 174 C-153.51040336 170.18424415 -155.05615243 166.82433415 -157.375 163.4375 C-162.66585555 155.19842675 -165.13237753 145.26956193 -167.32421875 135.81640625 C-167.81439631 133.77352752 -168.39205345 131.751015 -169.02124023 129.74658203 C-170.61101415 123.66110674 -170.39423667 117.56664649 -170.375 111.3125 C-170.37412384 110.62225739 -170.37324768 109.93201477 -170.37234497 109.22085571 C-170.2390613 77.35960162 -159.45993683 50.67249144 -137 28 C-136.40960938 27.360625 -135.81921875 26.72125 -135.2109375 26.0625 C-125.77328463 16.02046542 -112.31694394 5.46486928 -99.03125 1.60546875 C-96.75546315 0.97370584 -96.75546315 0.97370584 -93.75 -0.4375 C-65.81134451 -12.51053891 -27.75429164 -12.99137055 0 0 Z " fill="#040404" transform="translate(248,91)"/>
<path d="M0 0 C0 0.66 0 1.32 0 2 C0.6909375 2.10441406 1.381875 2.20882812 2.09375 2.31640625 C19.98802181 6.52540836 39.60344181 23.53774866 50 38 C50 38.99 50 39.98 50 41 C46.33606817 42.71383583 42.66986349 44.42269839 39.00146484 46.12695312 C37.75343107 46.70761521 36.50603071 47.28964069 35.25927734 47.87304688 C33.4687886 48.71060247 31.6758337 49.54287966 29.8828125 50.375 C28.80402832 50.87773437 27.72524414 51.38046875 26.61376953 51.8984375 C24 53 24 53 22 53 C21.566875 51.9275 21.13375 50.855 20.6875 49.75 C15.59875805 39.62646035 6.46122483 31.87352838 -3 26 C-3.75410156 25.47921875 -4.50820312 24.9584375 -5.28515625 24.421875 C-11.56439602 20.27065806 -18.09927127 18.14667182 -25.265625 16.078125 C-27.56357426 15.41470032 -29.84956346 14.70542775 -32.109375 13.921875 C-37.72581512 12.13068599 -43.25757172 11.82116178 -49.1171875 11.76171875 C-49.8920047 11.753647 -50.6668219 11.74557526 -51.46511841 11.73725891 C-53.10400195 11.72347737 -54.74291347 11.71272891 -56.38183594 11.70483398 C-58.02612982 11.69340186 -59.67038922 11.67309193 -61.31445312 11.64331055 C-77.06148701 11.35893615 -90.83402649 13.6379865 -105 21 C-105.91265625 21.45246094 -106.8253125 21.90492187 -107.765625 22.37109375 C-113.68080358 25.41955869 -118.73950422 28.95648135 -123.80859375 33.265625 C-125.81388793 34.85270275 -127.67381544 35.96143013 -130 37 C-130 37.66 -130 38.32 -130 39 C-131.4337162 40.17611182 -132.86941254 41.34990775 -134.31591797 42.51025391 C-137.18874461 45.05156851 -139.33718207 48.08128597 -141.5625 51.1875 C-142.28191772 52.18160889 -142.28191772 52.18160889 -143.01586914 53.19580078 C-146.59412704 58.23041881 -149.53597342 63.32882771 -152 69 C-152.36609375 69.76828125 -152.7321875 70.5365625 -153.109375 71.328125 C-162.64156563 91.63583547 -161.91568115 120.20961824 -154.93359375 141.20703125 C-151.31783496 150.50299197 -146.36971894 159.32009817 -140 167 C-135.76352551 165.69068735 -131.96734186 164.06975321 -128.05078125 161.99609375 C-126.95572266 161.42052734 -125.86066406 160.84496094 -124.73242188 160.25195312 C-123.60384766 159.65318359 -122.47527344 159.05441406 -121.3125 158.4375 C-119.05962316 157.24674825 -116.80576232 156.05785579 -114.55078125 154.87109375 C-113.55731689 154.34443115 -112.56385254 153.81776855 -111.5402832 153.27514648 C-109 152 -109 152 -106 151 C-106.495 150.05125 -106.99 149.1025 -107.5 148.125 C-109 145 -109 145 -109 143 C-108.35450195 142.94465088 -107.70900391 142.88930176 -107.04394531 142.83227539 C-104.11233145 142.57901389 -101.18117319 142.32080964 -98.25 142.0625 C-97.23421875 141.97548828 -96.2184375 141.88847656 -95.171875 141.79882812 C-93.70234375 141.66831055 -93.70234375 141.66831055 -92.203125 141.53515625 C-91.30239258 141.456604 -90.40166016 141.37805176 -89.47363281 141.29711914 C-87.23498447 141.02822504 -85.17932573 140.55691323 -83 140 C-81.08438746 139.93311409 -79.16664408 139.91468281 -77.25 139.9375 C-76.26515625 139.94652344 -75.2803125 139.95554688 -74.265625 139.96484375 C-73.14414062 139.98224609 -73.14414062 139.98224609 -72 140 C-73.38202753 143.67792958 -75.04695094 147.00918132 -77.00390625 150.4140625 C-77.57947266 151.42210937 -78.15503906 152.43015625 -78.74804688 153.46875 C-79.34681641 154.5103125 -79.94558594 155.551875 -80.5625 156.625 C-81.75372424 158.69913161 -82.94263709 160.77459293 -84.12890625 162.8515625 C-84.65556885 163.76760254 -85.18223145 164.68364258 -85.72485352 165.62744141 C-87.10754988 168.03836128 -87.10754988 168.03836128 -88 171 C-88.99 171 -89.98 171 -91 171 C-91.33 169.68 -91.66 168.36 -92 167 C-100.16679815 170.13119647 -107.9927168 173.80474236 -115.84765625 177.640625 C-116.74355469 178.07375 -117.63945312 178.506875 -118.5625 178.953125 C-119.77099609 179.54335449 -119.77099609 179.54335449 -121.00390625 180.14550781 C-123 181 -123 181 -125 181 C-125.33 181.66 -125.66 182.32 -126 183 C-127.98536627 183.70905938 -129.98910922 184.36694179 -132 185 C-134.3396553 185.98511802 -136.67328135 186.98470459 -139 188 C-144.57228452 190.29285806 -150.2721183 192.13763846 -156 194 C-157.24652344 194.40605469 -158.49304688 194.81210937 -159.77734375 195.23046875 C-166.65670435 197.44278918 -173.56596822 199.50186449 -180.5625 201.3125 C-181.82191406 201.63863281 -183.08132812 201.96476563 -184.37890625 202.30078125 C-188.01358342 203.0026229 -191.30830176 203.12828295 -195 203 C-195 203.66 -195 204.32 -195 205 C-201.35035638 206.11108654 -207.6244395 206.25372282 -214.0625 206.3125 C-215.12533203 206.34150391 -216.18816406 206.37050781 -217.28320312 206.40039062 C-223.53973065 206.45119316 -227.25059374 206.20349749 -232 202 C-234 200 -234 200 -234.5625 197.0625 C-234.28242525 188.08143628 -225.16136138 178.89065131 -219 173 C-208.15041377 164.01647655 -195.93862594 158.32502987 -183 153 C-181.52853516 152.37351563 -181.52853516 152.37351563 -180.02734375 151.734375 C-179.15207031 151.36828125 -178.27679688 151.0021875 -177.375 150.625 C-176.61960938 150.30789062 -175.86421875 149.99078125 -175.0859375 149.6640625 C-173 149 -173 149 -169 149 C-168.34 151.64 -167.68 154.28 -167 157 C-167.680625 157.1959375 -168.36125 157.391875 -169.0625 157.59375 C-182.37595822 161.70109349 -201.23844639 168.72533854 -209 181 C-209.33425735 183.62625139 -209.33425735 183.62625139 -209 186 C-207.34626869 187.65373131 -205.44243571 187.1837169 -203.16796875 187.20703125 C-197.00079479 187.14823932 -191.30215476 186.07831139 -185.3125 184.6875 C-184.33216797 184.47416016 -183.35183594 184.26082031 -182.34179688 184.04101562 C-173.27611327 182.00685353 -165.06619611 178.64739301 -156.5390625 174.98828125 C-154 174 -154 174 -152 174 C-153.51040336 170.18424415 -155.05615243 166.82433415 -157.375 163.4375 C-162.66585555 155.19842675 -165.13237753 145.26956193 -167.32421875 135.81640625 C-167.81439631 133.77352752 -168.39205345 131.751015 -169.02124023 129.74658203 C-170.61101415 123.66110674 -170.39423667 117.56664649 -170.375 111.3125 C-170.37412384 110.62225739 -170.37324768 109.93201477 -170.37234497 109.22085571 C-170.2390613 77.35960162 -159.45993683 50.67249144 -137 28 C-136.40960938 27.360625 -135.81921875 26.72125 -135.2109375 26.0625 C-125.77328463 16.02046542 -112.31694394 5.46486928 -99.03125 1.60546875 C-96.75546315 0.97370584 -96.75546315 0.97370584 -93.75 -0.4375 C-65.81134451 -12.51053891 -27.75429164 -12.99137055 0 0 Z " fill="#080707" transform="translate(248,91)"/>
<path d="M0 0 C0.98484375 0.00902344 1.9696875 0.01804688 2.984375 0.02734375 C4.10585938 0.04474609 4.10585938 0.04474609 5.25 0.0625 C3.86797247 3.74042958 2.20304906 7.07168132 0.24609375 10.4765625 C-0.61725586 11.98863281 -0.61725586 11.98863281 -1.49804688 13.53125 C-2.09681641 14.5728125 -2.69558594 15.614375 -3.3125 16.6875 C-4.50372424 18.76163161 -5.69263709 20.83709293 -6.87890625 22.9140625 C-7.40556885 23.83010254 -7.93223145 24.74614258 -8.47485352 25.68994141 C-9.85754988 28.10086128 -9.85754988 28.10086128 -10.75 31.0625 C-11.74 31.0625 -12.73 31.0625 -13.75 31.0625 C-14.08 29.7425 -14.41 28.4225 -14.75 27.0625 C-22.91679815 30.19369647 -30.7427168 33.86724236 -38.59765625 37.703125 C-39.49355469 38.13625 -40.38945312 38.569375 -41.3125 39.015625 C-42.11816406 39.40911133 -42.92382812 39.80259766 -43.75390625 40.20800781 C-45.75 41.0625 -45.75 41.0625 -47.75 41.0625 C-48.245 42.0525 -48.245 42.0525 -48.75 43.0625 C-50.73536627 43.77155938 -52.73910922 44.42944179 -54.75 45.0625 C-57.0896553 46.04761802 -59.42328135 47.04720459 -61.75 48.0625 C-67.32228452 50.35535806 -73.0221183 52.20013846 -78.75 54.0625 C-79.99652344 54.46855469 -81.24304688 54.87460937 -82.52734375 55.29296875 C-89.40670435 57.50528918 -96.31596822 59.56436449 -103.3125 61.375 C-105.20162109 61.86419922 -105.20162109 61.86419922 -107.12890625 62.36328125 C-110.76358342 63.0651229 -114.05830176 63.19078295 -117.75 63.0625 C-117.75 63.7225 -117.75 64.3825 -117.75 65.0625 C-124.10035638 66.17358654 -130.3744395 66.31622282 -136.8125 66.375 C-138.40674805 66.41850586 -138.40674805 66.41850586 -140.03320312 66.46289062 C-146.28973065 66.51369316 -150.00059374 66.26599749 -154.75 62.0625 C-156.75 60.0625 -156.75 60.0625 -157.3125 57.125 C-157.03242525 48.14393628 -147.91136138 38.95315131 -141.75 33.0625 C-130.90041377 24.07897655 -118.68862594 18.38752987 -105.75 13.0625 C-104.76902344 12.64484375 -103.78804687 12.2271875 -102.77734375 11.796875 C-101.46443359 11.24773437 -101.46443359 11.24773437 -100.125 10.6875 C-99.36960938 10.37039062 -98.61421875 10.05328125 -97.8359375 9.7265625 C-95.75 9.0625 -95.75 9.0625 -91.75 9.0625 C-90.76 13.0225 -90.76 13.0225 -89.75 17.0625 C-90.430625 17.2584375 -91.11125 17.454375 -91.8125 17.65625 C-105.12595822 21.76359349 -123.98844639 28.78783854 -131.75 41.0625 C-132.08425735 43.68875139 -132.08425735 43.68875139 -131.75 46.0625 C-130.09626869 47.71623131 -128.19243571 47.2462169 -125.91796875 47.26953125 C-119.75079479 47.21073932 -114.05215476 46.14081139 -108.0625 44.75 C-106.59200195 44.42999023 -106.59200195 44.42999023 -105.09179688 44.10351562 C-96.02611327 42.06935353 -87.81619611 38.70989301 -79.2890625 35.05078125 C-76.75 34.0625 -76.75 34.0625 -74.75 34.0625 C-74.42 33.0725 -74.09 32.0825 -73.75 31.0625 C-73.75 31.7225 -73.75 32.3825 -73.75 33.0625 C-69.55168119 31.06100285 -65.35674692 29.05261992 -61.16455078 27.03833008 C-59.74386842 26.35683199 -58.32234424 25.67708545 -56.89990234 24.99926758 C-48.70584793 21.09306874 -40.74727807 17.05980882 -32.99902344 12.31469727 C-30.75 11.0625 -30.75 11.0625 -28.75 11.0625 C-29.245 10.11375 -29.74 9.165 -30.25 8.1875 C-31.75 5.0625 -31.75 5.0625 -31.75 3.0625 C-31.10450195 3.00715088 -30.45900391 2.95180176 -29.79394531 2.89477539 C-26.86233145 2.64151389 -23.93117319 2.38330964 -21 2.125 C-19.98421875 2.03798828 -18.9684375 1.95097656 -17.921875 1.86132812 C-16.9421875 1.77431641 -15.9625 1.68730469 -14.953125 1.59765625 C-14.05239258 1.519104 -13.15166016 1.44055176 -12.22363281 1.35961914 C-0.82273051 -0.00979441 -0.82273051 -0.00979441 0 0 Z " fill="#D90606" transform="translate(170.75,230.9375)"/>
<path d="M0 0 C1.27989555 -0.0049926 1.27989555 -0.0049926 2.58564758 -0.01008606 C4.38676416 -0.01513224 6.18789003 -0.0174951 7.98901367 -0.01733398 C10.71223823 -0.01951044 13.43505062 -0.03766309 16.15820312 -0.05664062 C24.97218582 -0.08421936 33.44523997 -0.02345823 42.05078125 2.16796875 C42.05078125 2.82796875 42.05078125 3.48796875 42.05078125 4.16796875 C43.04078125 4.16796875 44.03078125 4.16796875 45.05078125 4.16796875 C45.81686319 9.20222149 45.00087853 11.76883494 42.11328125 15.98046875 C38.08286471 21.33807296 33.65133374 26.29727705 29.05078125 31.16796875 C28.42945313 31.84214844 27.808125 32.51632813 27.16796875 33.2109375 C26.59304688 33.81550781 26.018125 34.42007813 25.42578125 35.04296875 C24.93851562 35.55601562 24.45125 36.0690625 23.94921875 36.59765625 C21.19689003 38.87427383 18.18120389 40.45032592 15.05078125 42.16796875 C14.37673841 39.60720778 13.71136725 37.04470292 13.05078125 34.48046875 C12.86 33.75923828 12.66921875 33.03800781 12.47265625 32.29492188 C10.57533763 24.87505086 10.57533763 24.87505086 11.05078125 21.16796875 C12.68682321 19.79723089 14.35756186 18.46741619 16.05078125 17.16796875 C17.10266493 15.19476306 18.10971536 13.1963659 19.05078125 11.16796875 C13.87657718 11.40737624 8.70292131 11.65600334 3.52954102 11.91259766 C1.77542671 11.99836792 0.02119459 12.08176729 -1.7331543 12.16259766 C-12.75301131 12.67222279 -23.38708676 13.63840173 -34.25610352 15.58007812 C-36.32421875 15.79296875 -36.32421875 15.79296875 -39.94921875 15.16796875 C-42.74055741 12.81511624 -44.97604811 10.23871556 -46.94921875 7.16796875 C-46.94921875 6.50796875 -46.94921875 5.84796875 -46.94921875 5.16796875 C-46.03398437 5.03519531 -45.11875 4.90242188 -44.17578125 4.765625 C-42.98726563 4.58902344 -41.79875 4.41242188 -40.57421875 4.23046875 C-39.39085937 4.05644531 -38.2075 3.88242188 -36.98828125 3.703125 C-34.04219494 3.33334089 -34.04219494 3.33334089 -31.94921875 2.16796875 C-29.19558033 1.95883165 -26.45674751 1.79310031 -23.69921875 1.66796875 C-22.1938588 1.59825225 -20.68864087 1.52539042 -19.18359375 1.44921875 C-18.51553711 1.41892578 -17.84748047 1.38863281 -17.15917969 1.35742188 C-14.85550609 1.19689177 -14.85550609 1.19689177 -12.24389648 0.66088867 C-8.13907837 0.04676286 -4.14434695 0.00569742 0 0 Z " fill="#090909" transform="translate(336.94921875,105.83203125)"/>
<path d="M0 0 C0.98484375 0.00902344 1.9696875 0.01804688 2.984375 0.02734375 C4.10585937 0.04474609 4.10585937 0.04474609 5.25 0.0625 C3.86797247 3.74042958 2.20304906 7.07168132 0.24609375 10.4765625 C-0.32947266 11.48460937 -0.90503906 12.49265625 -1.49804688 13.53125 C-2.09681641 14.5728125 -2.69558594 15.614375 -3.3125 16.6875 C-4.50372424 18.76163161 -5.69263709 20.83709293 -6.87890625 22.9140625 C-7.40556885 23.83010254 -7.93223145 24.74614258 -8.47485352 25.68994141 C-9.85754988 28.10086128 -9.85754988 28.10086128 -10.75 31.0625 C-11.74 31.0625 -12.73 31.0625 -13.75 31.0625 C-14.245 29.0825 -14.245 29.0825 -14.75 27.0625 C-19.46272829 28.82253612 -24.08766246 30.70998125 -28.6015625 32.93359375 C-51.21914568 44.0625 -51.21914568 44.0625 -61.75 44.0625 C-63.43798827 45.50000191 -63.43798827 45.50000191 -64.75 47.0625 C-65.08 46.4025 -65.41 45.7425 -65.75 45.0625 C-65.42 44.4025 -65.09 43.7425 -64.75 43.0625 C-65.41 42.7325 -66.07 42.4025 -66.75 42.0625 C-66.42 41.4025 -66.09 40.7425 -65.75 40.0625 C-66.86375 39.876875 -66.86375 39.876875 -68 39.6875 C-70.55141485 39.10763299 -72.4767573 38.32541261 -74.75 37.0625 C-74.75 36.4025 -74.75 35.7425 -74.75 35.0625 C-69.875 35.9375 -69.875 35.9375 -68.75 37.0625 C-68.42 35.4125 -68.09 33.7625 -67.75 32.0625 C-65.77 32.0625 -63.79 32.0625 -61.75 32.0625 C-61.71567871 31.31452148 -61.68135742 30.56654297 -61.64599609 29.79589844 C-60.57734556 26.53578633 -59.27266882 25.7838607 -56.29214478 24.23468018 C-55.36249405 23.78593536 -55.36249405 23.78593536 -54.4140625 23.328125 C-53.77890717 23.00463074 -53.14375183 22.68113647 -52.48934937 22.34783936 C-50.45923216 21.31918684 -48.41763467 20.31602603 -46.375 19.3125 C-45.00701187 18.6226792 -43.63981348 17.93128986 -42.2734375 17.23828125 C-32.50937857 12.31562619 -32.50937857 12.31562619 -28.75 11.0625 C-29.245 10.11375 -29.74 9.165 -30.25 8.1875 C-31.75 5.0625 -31.75 5.0625 -31.75 3.0625 C-31.10450195 3.00715088 -30.45900391 2.95180176 -29.79394531 2.89477539 C-26.86233145 2.64151389 -23.93117319 2.38330964 -21 2.125 C-19.98421875 2.03798828 -18.9684375 1.95097656 -17.921875 1.86132812 C-16.9421875 1.77431641 -15.9625 1.68730469 -14.953125 1.59765625 C-14.05239258 1.519104 -13.15166016 1.44055176 -12.22363281 1.35961914 C-0.82273051 -0.00979441 -0.82273051 -0.00979441 0 0 Z " fill="#EF0202" transform="translate(170.75,230.9375)"/>
<path d="M0 0 C0.99 0.33 1.98 0.66 3 1 C3.92017937 9.77578475 3.92017937 9.77578475 1.6640625 12.77734375 C0 14.125 0 14.125 -3 16 C-3 15.34 -3 14.68 -3 14 C-3.66 14 -4.32 14 -5 14 C-5 15.32 -5 16.64 -5 18 C-6.28583984 18.05607422 -6.28583984 18.05607422 -7.59765625 18.11328125 C-14.14409564 18.48968306 -19.12881019 19.12686456 -25 22 C-26.32 22 -27.64 22 -29 22 C-29.33 22.99 -29.66 23.98 -30 25 C-32.98847832 27.027896 -35.43495636 27.3656455 -39 27 C-39.99 26.34 -40.98 25.68 -42 25 C-42 24.01 -42 23.02 -42 22 C-37.94807152 19.99611504 -33.89125539 18.00262962 -29.82958984 16.01855469 C-28.4489696 15.34234576 -27.06972031 14.66333014 -25.69189453 13.98144531 C-23.70960753 13.00102074 -21.72258718 12.03084099 -19.734375 11.0625 C-19.12068054 10.75626709 -18.50698608 10.45003418 -17.87469482 10.13452148 C-14.56994988 8.53829676 -12.7675852 8 -9 8 C-8.505 9.98 -8.505 9.98 -8 12 C-7.01 12 -6.02 12 -5 12 C-4.9175 11.319375 -4.835 10.63875 -4.75 9.9375 C-3.77667472 6.1253093 -2.04192545 3.35929671 0 0 Z " fill="#F3EFEF" transform="translate(165,250)"/>
<path d="M0 0 C14.72439355 1.89992175 30.2990533 13.45501977 41 23 C41.8971875 23.76570313 42.794375 24.53140625 43.71875 25.3203125 C48.57184307 29.53108443 52.53993139 33.57922585 56 39 C53.04429311 37.66412374 50.96105338 36.1731348 48.625 33.9375 C34.48899019 21.38368578 15.78242766 12.06581913 -2 6 C-1.34 4.02 -0.68 2.04 0 0 Z " fill="#D21013" transform="translate(317,247)"/>
<path d="M0 0 C1.67542976 0.28604898 3.34385343 0.61781233 5 1 C5 1.66 5 2.32 5 3 C5.80695313 2.83628906 6.61390625 2.67257813 7.4453125 2.50390625 C11.62768788 1.91102007 15.65944818 1.89105748 19.875 1.9375 C20.65875 1.94201172 21.4425 1.94652344 22.25 1.95117188 C24.16670014 1.96285907 26.08336048 1.98079092 28 2 C28 2.33 28 2.66 28 3 C22.06 3.33 16.12 3.66 10 4 C10.99 5.98 11.98 7.96 13 10 C13 10.99 13 11.98 13 13 C7.75506674 16.34782974 3.12096691 17.94513949 -3 19 C-3 18.34 -3 17.68 -3 17 C-2.34 17 -1.68 17 -1 17 C-0.7834375 15.576875 -0.7834375 15.576875 -0.5625 14.125 C0 11 0 11 1 9 C0.34 9 -0.32 9 -1 9 C-1.09765625 2.84765625 -1.09765625 2.84765625 -1 1 C-0.67 0.67 -0.34 0.34 0 0 Z " fill="#F4EDED" transform="translate(129,229)"/>
<path d="M0 0 C0 0.66 0 1.32 0 2 C-0.78246094 2.20496094 -1.56492188 2.40992188 -2.37109375 2.62109375 C-3.38300781 2.89050781 -4.39492187 3.15992188 -5.4375 3.4375 C-6.44683594 3.70433594 -7.45617187 3.97117187 -8.49609375 4.24609375 C-10.91752001 4.75978077 -10.91752001 4.75978077 -12 6 C-13.5798928 6.16281338 -15.16465741 6.27877979 -16.75 6.375 C-20.99736043 6.7126107 -24.88338458 7.41279131 -29 8.5 C-37.55338612 10.62024686 -46.23131628 10.73147642 -55 11 C-55.103125 11.639375 -55.20625 12.27875 -55.3125 12.9375 C-55.539375 13.618125 -55.76625 14.29875 -56 15 C-59.13349732 16.04449911 -59.98968256 15.93423645 -63 15 C-64.29243536 10.8803623 -65.26252625 7.33168317 -65 3 C-64.17371094 3.65484375 -63.34742187 4.3096875 -62.49609375 4.984375 C-56.36250026 8.48928557 -48.90228656 7.41353161 -42.0625 7.25 C-40.60093585 7.22990977 -39.13934514 7.21166344 -37.67773438 7.1953125 C-34.11793226 7.15150336 -30.55913746 7.08261546 -27 7 C-27 6.34 -27 5.68 -27 5 C-25.26363281 4.70996094 -25.26363281 4.70996094 -23.4921875 4.4140625 C-21.95308283 4.15128853 -20.41402266 3.88825388 -18.875 3.625 C-18.11445312 3.49867188 -17.35390625 3.37234375 -16.5703125 3.2421875 C-13.1548561 2.65331571 -9.99280056 1.99760019 -6.6953125 0.8984375 C-4 0 -4 0 0 0 Z " fill="#E6CBCA" transform="translate(80,289)"/>
<path d="M0 0 C-0.33 1.98 -0.66 3.96 -1 6 C-1.54712646 6.15033691 -2.09425293 6.30067383 -2.65795898 6.45556641 C-15.66806161 10.05008782 -28.40670019 14.0577216 -41.0546875 18.76464844 C-42.38844267 19.260974 -43.72312714 19.75481121 -45.05883789 20.24584961 C-46.82186107 20.89492624 -48.58100186 21.55452079 -50.33984375 22.21484375 C-53 23 -53 23 -55 22 C-52.43228643 19.43228643 -50.13235086 18.89956091 -46.6875 17.75 C-41.8143881 16.08208953 -37.1561669 14.22213131 -32.5 12 C-26.86349005 9.31922088 -21.14368916 7.19958189 -15.24609375 5.16796875 C-11.64700615 3.87299018 -8.21060869 2.36383174 -4.76953125 0.69921875 C-3 0 -3 0 0 0 Z " fill="#222222" transform="translate(76,167)"/>
<path d="M0 0 C0.66 2.64 1.32 5.28 2 8 C0.10546779 8.64964023 -1.79068649 9.29455115 -3.6875 9.9375 C-5.27111328 10.47697266 -5.27111328 10.47697266 -6.88671875 11.02734375 C-9.59050583 11.87206518 -12.21386842 12.50893785 -15 13 C-15.33 12.01 -15.66 11.02 -16 10 C-18.87450983 9.74951364 -18.87450983 9.74951364 -22 10 C-22.474375 10.495 -22.94875 10.99 -23.4375 11.5 C-25 13 -25 13 -28.6875 13.1875 C-29.780625 13.125625 -30.87375 13.06375 -32 13 C-30.67275297 10.34550594 -29.511764 10.22195061 -26.7734375 9.16015625 C-25.90589844 8.81919922 -25.03835937 8.47824219 -24.14453125 8.12695312 C-23.23058594 7.77568359 -22.31664062 7.42441406 -21.375 7.0625 C-19.59084586 6.36665406 -17.80698615 5.67005267 -16.0234375 4.97265625 C-15.16459961 4.64023926 -14.30576172 4.30782227 -13.42089844 3.96533203 C-11.28403022 3.11325691 -9.19519704 2.19789824 -7.1015625 1.24609375 C-4 0 -4 0 0 0 Z " fill="#CF1C1F" transform="translate(79,240)"/>
<path d="M0 0 C0 0.99 0 1.98 0 3 C1.65 3 3.3 3 5 3 C4.47355572 6.79039882 3.68249563 9.21815268 1 12 C-2.66647791 13.62954574 -7.06955419 13.06550743 -11 13 C-8.49484216 10.49484216 -6.38931835 9.94900914 -3 9 C-1.68 9 -0.36 9 1 9 C0.67 8.236875 0.34 7.47375 0 6.6875 C-1 4 -1 4 -1 1 C-13.73011855 4.46416943 -25.30323251 10.01595787 -37 16 C-38.33246697 16.66839658 -39.66536076 17.33595156 -41 18 C-41 17.34 -41 16.68 -41 16 C-40.34 16 -39.68 16 -39 16 C-39 15.34 -39 14.68 -39 14 C-38.01 14 -37.02 14 -36 14 C-36 13.34 -36 12.68 -36 12 C-36.66 11.67 -37.32 11.34 -38 11 C-36.71034824 9.62437146 -35.37310707 8.29233607 -34 7 C-33.34 7 -32.68 7 -32 7 C-32 7.66 -32 8.32 -32 9 C-29.00007271 7.70855022 -29.00007271 7.70855022 -26 6 C-25.67 5.01 -25.34 4.02 -25 3 C-24.21625 3.226875 -23.4325 3.45375 -22.625 3.6875 C-14.6582463 4.37428911 -8.00996487 -0.14833268 0 0 Z " fill="#F0D0D0" transform="translate(80,239)"/>
<path d="M0 0 C0 0.66 0 1.32 0 2 C-0.99 2 -1.98 2 -3 2 C-3 2.66 -3 3.32 -3 4 C-3.66 4 -4.32 4 -5 4 C-5 5.32 -5 6.64 -5 8 C-7.5 9.625 -7.5 9.625 -10 11 C-10 11.66 -10 12.32 -10 13 C-8.68 13.33 -7.36 13.66 -6 14 C-6 13.34 -6 12.68 -6 12 C-5.34 12 -4.68 12 -4 12 C-4 11.34 -4 10.68 -4 10 C-3.01 10.33 -2.02 10.66 -1 11 C-1.97866338 12.14626322 -2.95794587 13.29199788 -3.9375 14.4375 C-4.75541016 15.39462891 -4.75541016 15.39462891 -5.58984375 16.37109375 C-6.36795695 17.26991149 -7.15936528 18.15936528 -8 19 C-8.04080783 20.99958364 -8.04254356 23.00045254 -8 25 C-9.65 24.67 -11.3 24.34 -13 24 C-12.79375 22.906875 -12.5875 21.81375 -12.375 20.6875 C-11.59653475 16.9161599 -11.59653475 16.9161599 -14 14 C-18.39314793 15.01160848 -18.39314793 15.01160848 -21.375 18.125 C-21.58125 18.74375 -21.7875 19.3625 -22 20 C-22.66 20 -23.32 20 -24 20 C-24 20.99 -24 21.98 -24 23 C-25.32 23.33 -26.64 23.66 -28 24 C-24.01813027 15.27780915 -10.32648533 0 0 0 Z " fill="#D50406" transform="translate(47,253)"/>
<path d="M0 0 C6.40775619 2.19727367 10.92781004 6.64755855 16 11 C16.91136719 11.77472656 17.82273437 12.54945313 18.76171875 13.34765625 C23.59141031 17.5564906 27.5496817 21.59450133 31 27 C28.04429311 25.66412374 25.96105338 24.1731348 23.625 21.9375 C14.91260399 14.14988345 4.3175811 8.36935343 -6 3 C-6 2.67 -6 2.34 -6 2 C-4.02 2 -2.04 2 0 2 C0 1.34 0 0.68 0 0 Z " fill="#CB1C1F" transform="translate(342,259)"/>
<path d="M0 0 C1.60875 0.2784375 1.60875 0.2784375 3.25 0.5625 C6.40391546 0.9304568 8.09818492 1.04465343 11 0 C6.61761547 4.51933405 6.61761547 4.51933405 4.203125 6.3984375 C-0.41306149 10.03599246 -3.75676018 14.08487648 -7 18.9375 C-7.39799805 19.51040771 -7.79599609 20.08331543 -8.20605469 20.67358398 C-11.21337104 25.3723499 -11.3779098 28.62069021 -11 34 C-11.99 34 -12.98 34 -14 34 C-14.33 30.04 -14.66 26.08 -15 22 C-13.68 22 -12.36 22 -11 22 C-10.67 19.36 -10.34 16.72 -10 14 C-9.01 14.33 -8.02 14.66 -7 15 C-6.566875 13.5459375 -6.566875 13.5459375 -6.125 12.0625 C-5 9 -5 9 -3 8 C-2.28293018 6.01751285 -1.61709587 4.01584651 -1 2 C-0.67 1.34 -0.34 0.68 0 0 Z " fill="#DECDCC" transform="translate(26,258)"/>
<path d="M0 0 C0 2.62113708 -0.31292445 4.50935112 -1 7 C-0.34 7 0.32 7 1 7 C0.67 8.32 0.34 9.64 0 11 C-2 10 -2 10 -3 9 C-3 10.32 -3 11.64 -3 13 C-2.4225 12.814375 -1.845 12.62875 -1.25 12.4375 C1.21509379 11.95817621 2.61740218 12.34273163 5 13 C5.33 12.67 5.66 12.34 6 12 C8.01964199 11.92755947 10.04167124 11.91622812 12.0625 11.9375 C13.16722656 11.94652344 14.27195312 11.95554687 15.41015625 11.96484375 C16.26480469 11.97644531 17.11945313 11.98804688 18 12 C10.58331116 16.02089281 1.31493258 16.98162398 -7 16 C-9 14 -9 14 -9.4375 11.75 C-8.67619058 6.96462648 -5.34049854 4.08689071 -1.6875 1.125 C-1.130625 0.75375 -0.57375 0.3825 0 0 Z " fill="#E0C6C3" transform="translate(47,263)"/>
<path d="M0 0 C0.99 0.33 1.98 0.66 3 1 C-0.78820084 3.00661684 -4.58111052 5.0041624 -8.375 7 C-9.99535156 7.85851562 -9.99535156 7.85851562 -11.6484375 8.734375 C-13.1953125 9.54648438 -13.1953125 9.54648438 -14.7734375 10.375 C-15.72653809 10.87773437 -16.67963867 11.38046875 -17.66162109 11.8984375 C-20 13 -20 13 -22 13 C-22 12.34 -22 11.68 -22 11 C-21.01 10.67 -20.02 10.34 -19 10 C-18.67 7.36 -18.34 4.72 -18 2 C-16.86820312 1.93941406 -15.73640625 1.87882813 -14.5703125 1.81640625 C-13.08852855 1.73200083 -11.6067584 1.64735283 -10.125 1.5625 C-9.37863281 1.52318359 -8.63226563 1.48386719 -7.86328125 1.44335938 C-3.80013136 1.28426376 -3.80013136 1.28426376 0 0 Z " fill="#F5DDDA" transform="translate(130,246)"/>
<path d="M0 0 C1.67542976 0.28604898 3.34385343 0.61781233 5 1 C5 1.66 5 2.32 5 3 C5.80695313 2.83628906 6.61390625 2.67257813 7.4453125 2.50390625 C11.62768788 1.91102007 15.65944818 1.89105748 19.875 1.9375 C20.65875 1.94201172 21.4425 1.94652344 22.25 1.95117188 C24.16670014 1.96285907 26.08336048 1.98079092 28 2 C28 2.33 28 2.66 28 3 C26.95199219 3.06058594 25.90398437 3.12117187 24.82421875 3.18359375 C23.44529952 3.26801738 22.06639395 3.35266447 20.6875 3.4375 C19.65206055 3.49647461 19.65206055 3.49647461 18.59570312 3.55664062 C15.52838465 3.74927415 12.93031848 4.02322717 10 5 C9.67 6.32 9.34 7.64 9 9 C5.7 9 2.4 9 -1 9 C-1.09765625 2.84765625 -1.09765625 2.84765625 -1 1 C-0.67 0.67 -0.34 0.34 0 0 Z " fill="#F3F2F2" transform="translate(129,229)"/>
<path d="M0 0 C0.98484375 0.00902344 1.9696875 0.01804688 2.984375 0.02734375 C4.10585937 0.04474609 4.10585937 0.04474609 5.25 0.0625 C4.59 1.7125 3.93 3.3625 3.25 5.0625 C2.755 3.5775 2.755 3.5775 2.25 2.0625 C1.4971875 2.19527344 0.744375 2.32804688 -0.03125 2.46484375 C-8.93459041 3.94513214 -17.7494672 4.62344962 -26.75 5.0625 C-26.42 7.0425 -26.09 9.0225 -25.75 11.0625 C-27.73 11.7225 -29.71 12.3825 -31.75 13.0625 C-31.42 12.4025 -31.09 11.7425 -30.75 11.0625 C-30.09 11.0625 -29.43 11.0625 -28.75 11.0625 C-29.245 10.11375 -29.74 9.165 -30.25 8.1875 C-31.75 5.0625 -31.75 5.0625 -31.75 3.0625 C-31.10450195 3.00715088 -30.45900391 2.95180176 -29.79394531 2.89477539 C-26.86233145 2.64151389 -23.93117319 2.38330964 -21 2.125 C-19.98421875 2.03798828 -18.9684375 1.95097656 -17.921875 1.86132812 C-16.9421875 1.77431641 -15.9625 1.68730469 -14.953125 1.59765625 C-14.05239258 1.519104 -13.15166016 1.44055176 -12.22363281 1.35961914 C-0.82273051 -0.00979441 -0.82273051 -0.00979441 0 0 Z " fill="#DD2025" transform="translate(170.75,230.9375)"/>
<path d="M0 0 C2.25 0.1875 2.25 0.1875 5 1 C6.35827971 2.64639965 7.69254251 4.31295807 9 6 C10.051875 6.2475 10.051875 6.2475 11.125 6.5 C11.74375 6.665 12.3625 6.83 13 7 C13.71727778 8.64551962 14.38325228 10.31422289 15 12 C15.99 12.66 16.98 13.32 18 14 C17.67 14.99 17.34 15.98 17 17 C10.25 17.125 10.25 17.125 8 16 C8 14.68 8 13.36 8 12 C6.02 12 4.04 12 2 12 C2.66 11.67 3.32 11.34 4 11 C3.67 9.68 3.34 8.36 3 7 C6.15427735 8.83999512 9.0981552 10.78641326 12 13 C10.56354149 11.39490066 9.12579294 9.79095576 7.6875 8.1875 C6.88699219 7.29417969 6.08648437 6.40085937 5.26171875 5.48046875 C3.54775419 3.60073214 1.82122396 1.77407253 0 0 Z " fill="#DACFCF" transform="translate(359,271)"/>
<path d="M0 0 C3.94120709 0.56302958 6.7508723 1.6791945 10 4 C10 4.66 10 5.32 10 6 C11.32 6.33 12.64 6.66 14 7 C14 7.66 14 8.32 14 9 C8.58201328 8.30834212 3.3177215 7.24200752 -2 6 C-1.34 4.02 -0.68 2.04 0 0 Z " fill="#D20F11" transform="translate(317,247)"/>
<path d="M0 0 C-8.19532213 2.65912048 -16.40811527 5.21185764 -24.75 7.375 C-25.41644531 7.55450195 -26.08289063 7.73400391 -26.76953125 7.91894531 C-30.15314599 8.77179687 -32.68952458 9.28740711 -36 8 C-32.79619983 5.86413322 -31.98060033 5.76867825 -28.3125 5.875 C-27.10013672 5.90207031 -27.10013672 5.90207031 -25.86328125 5.9296875 C-24.94095703 5.96449219 -24.94095703 5.96449219 -24 6 C-24 5.34 -24 4.68 -24 4 C-22.68 4 -21.36 4 -20 4 C-20 3.34 -20 2.68 -20 2 C-19.43152344 1.95101563 -18.86304687 1.90203125 -18.27734375 1.8515625 C-14.39987805 1.47611507 -10.94362553 0.98336491 -7.1875 -0.125 C-3.99355887 -1.00176815 -3.0171514 -0.92936117 0 0 Z " fill="#CD1119" transform="translate(92,285)"/>
<path d="M0 0 C2 1 4 2 6 3 C5.67 3.99 5.34 4.98 5 6 C6.2065625 6.680625 6.2065625 6.680625 7.4375 7.375 C10 9 10 9 11 11 C9.58208592 10.54554036 8.16571954 10.08625056 6.75 9.625 C5.96109375 9.36976563 5.1721875 9.11453125 4.359375 8.8515625 C2 8 2 8 -0.109375 6.8984375 C-2.10272929 5.78539547 -2.10272929 5.78539547 -5 6 C-5.6814823 7.89179203 -5.6814823 7.89179203 -6 10 C-5.34 10.66 -4.68 11.32 -4 12 C-5.32 12 -6.64 12 -8 12 C-8 9.69 -8 7.38 -8 5 C-7.05125 4.690625 -6.1025 4.38125 -5.125 4.0625 C-2.13919592 3.12605258 -2.13919592 3.12605258 0 2 C0 1.34 0 0.68 0 0 Z " fill="#F0D7D5" transform="translate(322,242)"/>
<path d="M0 0 C0 0.99 0 1.98 0 3 C-1.33333333 3.66666667 -2.66666667 4.33333333 -4 5 C-4.639375 5.37125 -5.27875 5.7425 -5.9375 6.125 C-8.41109822 7.17440531 -10.33953538 7.14780359 -13 7 C-12.67 5.02 -12.34 3.04 -12 1 C-3.96428571 -1.27678571 -3.96428571 -1.27678571 0 0 Z " fill="#DD0605" transform="translate(79,244)"/>
<path d="M0 0 C-0.33 1.32 -0.66 2.64 -1 4 C-2.98 4 -4.96 4 -7 4 C-7 5.98 -7 7.96 -7 10 C-7.99 9.34 -8.98 8.68 -10 8 C-14.34170904 8.0931435 -14.34170904 8.0931435 -18 10 C-19.66617115 10.04063832 -21.33388095 10.042721 -23 10 C-21 8 -21 8 -17.4375 7.0625 C-16.303125 6.711875 -15.16875 6.36125 -14 6 C-13.67 5.01 -13.34 4.02 -13 3 C-13 3.66 -13 4.32 -13 5 C-12.22914062 4.6390625 -11.45828125 4.278125 -10.6640625 3.90625 C-9.66117188 3.4421875 -8.65828125 2.978125 -7.625 2.5 C-6.62726563 2.0359375 -5.62953125 1.571875 -4.6015625 1.09375 C-2 0 -2 0 0 0 Z " fill="#D12224" transform="translate(110,259)"/>
<path d="M0 0 C1.32 0.33 2.64 0.66 4 1 C1.69 5.62 -0.62 10.24 -3 15 C-3.99 15 -4.98 15 -6 15 C-6.33 13.68 -6.66 12.36 -7 11 C-8.98 11.33 -10.96 11.66 -13 12 C-13 11.34 -13 10.68 -13 10 C-10.66705225 9.95758277 -8.33297433 9.95907063 -6 10 C-5.67 10.33 -5.34 10.66 -5 11 C-4.67 10.34 -4.34 9.68 -4 9 C-3.34 9 -2.68 9 -2 9 C-2.226875 8.2575 -2.45375 7.515 -2.6875 6.75 C-3 4 -3 4 -1.5625 1.6875 C-1.046875 1.130625 -0.53125 0.57375 0 0 Z " fill="#E41415" transform="translate(163,247)"/>
<path d="M0 0 C0.99 0.33 1.98 0.66 3 1 C3.54372951 4.05847848 4 6.88772805 4 10 C1.69 10.33 -0.62 10.66 -3 11 C-3.32613618 6.32538149 -2.70582788 3.83325617 0 0 Z " fill="#F9ECE8" transform="translate(172,238)"/>
<path d="M0 0 C0.66 0.33 1.32 0.66 2 1 C-1.01887244 4.48331435 -3.56909529 5.79157144 -8 7 C-8 7.66 -8 8.32 -8 9 C-9.98 9 -11.96 9 -14 9 C-13.67 10.32 -13.34 11.64 -13 13 C-14.32 12.34 -15.64 11.68 -17 11 C-17 10.01 -17 9.02 -17 8 C-14.21443118 6.63301613 -11.42068672 5.28365462 -8.625 3.9375 C-7.8309375 3.54755859 -7.036875 3.15761719 -6.21875 2.75585938 C-5.45820313 2.39169922 -4.69765625 2.02753906 -3.9140625 1.65234375 C-2.8614624 1.14175415 -2.8614624 1.14175415 -1.78759766 0.62084961 C-1.19769043 0.41596924 -0.6077832 0.21108887 0 0 Z " fill="#FBCCCA" transform="translate(140,264)"/>
<path d="M0 0 C0.99 0.33 1.98 0.66 3 1 C3.66 5.29 4.32 9.58 5 14 C3.35 14 1.7 14 0 14 C-0.144375 13.38125 -0.28875 12.7625 -0.4375 12.125 C-0.93152225 9.96741678 -0.93152225 9.96741678 -2 8 C-1.34 8 -0.68 8 0 8 C0 5.36 0 2.72 0 0 Z " fill="#D5CED7" transform="translate(8,280)"/>
<path d="M0 0 C0.99 0.33 1.98 0.66 3 1 C1.51298598 6.80160774 0.27495594 11.57763179 -4 16 C-4.95465783 13.83032311 -5.14401212 12.43671207 -4.3984375 10.17578125 C-3.64129615 8.4315257 -2.82390802 6.71372869 -2 5 C-2.66 4.67 -3.32 4.34 -4 4 C-2.68 2.68 -1.36 1.36 0 0 Z " fill="#111213" transform="translate(311,240)"/>
<path d="M0 0 C0 0.66 0 1.32 0 2 C-1.32 2 -2.64 2 -4 2 C-4.33 2.99 -4.66 3.98 -5 5 C-7.98459129 6.95542188 -9.26414791 7 -13 7 C-13.33 5.68 -13.66 4.36 -14 3 C-13.1028125 2.566875 -13.1028125 2.566875 -12.1875 2.125 C-7.18345038 -0.44851123 -5.74472115 -1.08390965 0 0 Z " fill="#ECEFEE" transform="translate(140,270)"/>
<path d="M0 0 C-3.52468376 2.82152715 -7.32679708 4.98269186 -11.25 7.1875 C-12.22453125 7.73954102 -12.22453125 7.73954102 -13.21875 8.30273438 C-14.81110627 9.20428903 -16.4053638 10.10248417 -18 11 C-17.15625 6.234375 -17.15625 6.234375 -15.75 4.125 C-14 3 -14 3 -11.3125 3.3125 C-10.1678125 3.6528125 -10.1678125 3.6528125 -9 4 C-9 3.34 -9 2.68 -9 2 C-5.5647952 -0.29013653 -4.014669 -0.17842973 0 0 Z " fill="#D10F11" transform="translate(64,253)"/>
<path d="M0 0 C0 0.66 0 1.32 0 2 C-0.78246094 2.20496094 -1.56492187 2.40992188 -2.37109375 2.62109375 C-3.38300781 2.89050781 -4.39492187 3.15992188 -5.4375 3.4375 C-6.44683594 3.70433594 -7.45617187 3.97117187 -8.49609375 4.24609375 C-10.91752001 4.75978077 -10.91752001 4.75978077 -12 6 C-14.53049402 6.07313567 -17.03304837 6.09247527 -19.5625 6.0625 C-20.27341797 6.05798828 -20.98433594 6.05347656 -21.71679688 6.04882812 C-23.47790013 6.03700864 -25.23896036 6.01907263 -27 6 C-27 5.67 -27 5.34 -27 5 C-25.26363281 4.70996094 -25.26363281 4.70996094 -23.4921875 4.4140625 C-21.95308283 4.15128853 -20.41402266 3.88825388 -18.875 3.625 C-18.11445312 3.49867188 -17.35390625 3.37234375 -16.5703125 3.2421875 C-13.1548561 2.65331571 -9.99280056 1.99760019 -6.6953125 0.8984375 C-4 0 -4 0 0 0 Z " fill="#EEB4B1" transform="translate(80,289)"/>
<path d="M0 0 C1.98 0 3.96 0 6 0 C5 3 5 3 2.41796875 4.640625 C1.35191406 5.17171875 0.28585937 5.7028125 -0.8125 6.25 C-1.87082031 6.79140625 -2.92914063 7.3328125 -4.01953125 7.890625 C-7.02427735 9.00903639 -8.10225041 9.20681097 -11 8 C-10.67 7.34 -10.34 6.68 -10 6 C-8.02 6.495 -8.02 6.495 -6 7 C-6 5.68 -6 4.36 -6 3 C-4.68 3.33 -3.36 3.66 -2 4 C-1.34 2.68 -0.68 1.36 0 0 Z " fill="#EAEAEA" transform="translate(302,146)"/>
<path d="M0 0 C0.433125 0.61875 0.86625 1.2375 1.3125 1.875 C2.99740483 4.2197245 2.99740483 4.2197245 6 6 C5.34 6 4.68 6 4 6 C3.67 7.32 3.34 8.64 3 10 C1.02 10 -0.96 10 -3 10 C-3.36923077 4.58461538 -3.36923077 4.58461538 -1.5 1.625 C-1.005 1.08875 -0.51 0.5525 0 0 Z " fill="#EEE4E6" transform="translate(318,236)"/>
<path d="M0 0 C0.99 0.33 1.98 0.66 3 1 C2.67 1.66 2.34 2.32 2 3 C1.34 3 0.68 3 0 3 C0 3.99 0 4.98 0 6 C-5.08086796 6.84681133 -9.84828377 7.09038099 -15 7 C-12.48397814 4.48397814 -10.32111136 3.99815529 -6.9375 2.9375 C-3.1759587 1.99691238 -3.1759587 1.99691238 0 0 Z " fill="#F8C4C4" transform="translate(107,278)"/>
<path d="M0 0 C0.66 0 1.32 0 2 0 C2.33 1.32 2.66 2.64 3 4 C3.99 3.34 4.98 2.68 6 2 C6 3.65 6 5.3 6 7 C5.01 7 4.02 7 3 7 C2.34 8.98 1.68 10.96 1 13 C-1.24510613 10.56780169 -1.97120564 9.28218472 -2.3125 5.9375 C-2 3 -2 3 0 0 Z " fill="#D5D5D5" transform="translate(18,261)"/>
<path d="M0 0 C5.445 1.485 5.445 1.485 11 3 C11 3.66 11 4.32 11 5 C12.32 5.66 13.64 6.32 15 7 C13.25 8.5625 13.25 8.5625 11 10 C8.75 9.6875 8.75 9.6875 7 9 C7.33 8.01 7.66 7.02 8 6 C7.236875 5.7525 6.47375 5.505 5.6875 5.25 C3 4 3 4 0 0 Z " fill="#E6E4E0" transform="translate(319,256)"/>
<path d="M0 0 C0 0.99 0 1.98 0 3 C-0.99 3.495 -0.99 3.495 -2 4 C-2 3.01 -2 2.02 -2 1 C-1.34 0.67 -0.68 0.34 0 0 Z M-9 4 C-2.741346 3.4673486 1.45108785 5.18150494 7 8 C7 8.66 7 9.32 7 10 C1.53135543 8.98408579 -3.76390013 7.92908943 -9 6 C-9 5.34 -9 4.68 -9 4 Z M-11 6 C-9 7 -9 7 -9 7 Z " fill="#EAE7EB" transform="translate(109,280)"/>
<path d="M0 0 C3.38325633 1.76729984 5.57440468 4.18460363 8.01953125 7.0390625 C8.47392578 7.5546875 8.92832031 8.0703125 9.39648438 8.6015625 C10.50811131 9.8653068 11.60871345 11.13873426 12.70703125 12.4140625 C8.82674339 12.4140625 8.11922112 11.27051309 5.33203125 8.6640625 C2.20575784 5.78768697 -0.93102128 3.01686054 -4.29296875 0.4140625 C-2.29296875 -0.5859375 -2.29296875 -0.5859375 0 0 Z " fill="#B3393E" transform="translate(360.29296875,272.5859375)"/>
<path d="M0 0 C2 1 2 1 3 3 C-0.45425518 4.1996042 -3.91396865 5.38260295 -7.375 6.5625 C-8.35984375 6.90474609 -9.3446875 7.24699219 -10.359375 7.59960938 C-11.77089844 8.07817383 -11.77089844 8.07817383 -13.2109375 8.56640625 C-14.08024902 8.86490479 -14.94956055 9.16340332 -15.84521484 9.47094727 C-18 10 -18 10 -20 9 C-17.33019119 6.33019119 -14.69163108 5.71606548 -11.125 4.5 C-6.29862691 2.88324827 -6.29862691 2.88324827 -1.6796875 0.78125 C-1.12539063 0.5234375 -0.57109375 0.265625 0 0 Z " fill="#4B4B4B" transform="translate(41,180)"/>
<path d="M0 0 C0.66 0.66 1.32 1.32 2 2 C1.67 2.66 1.34 3.32 1 4 C1.66 4.33 2.32 4.66 3 5 C1.35 6.65 -0.3 8.3 -2 10 C-2 9.34 -2 8.68 -2 8 C-2.99 8.33 -3.98 8.66 -5 9 C-5.66 8.34 -6.32 7.68 -7 7 C-4.69 4.69 -2.38 2.38 0 0 Z " fill="#E8E8E8" transform="translate(292,277)"/>
<path d="M0 0 C1.125 3.75 1.125 3.75 0 6 C-0.22467831 7.53668865 -0.40796805 9.07968054 -0.5625 10.625 C-0.64628906 11.44226563 -0.73007812 12.25953125 -0.81640625 13.1015625 C-0.87699219 13.72804688 -0.93757813 14.35453125 -1 15 C-0.34 15.33 0.32 15.66 1 16 C0.01 16 -0.98 16 -2 16 C-4 14 -4 14 -4.375 10.8125 C-3.91484377 6.13424503 -2.54430059 3.89596028 0 0 Z " fill="#C42429" transform="translate(18,277)"/>
<path d="M0 0 C3.45925163 1.2491742 6.14693203 2.67527795 9 5 C7.68 6.32 6.36 7.64 5 9 C1.37 7.68 -2.26 6.36 -6 5 C-1.44968209 3.86242052 0.63084406 4.5716221 5 6 C5 5.34 5 4.68 5 4 C4.360625 3.896875 3.72125 3.79375 3.0625 3.6875 C2.381875 3.460625 1.70125 3.23375 1 3 C0.67 2.01 0.34 1.02 0 0 Z " fill="#D02327" transform="translate(326,250)"/>
<path d="M0 0 C7.92 0 15.84 0 24 0 C23.04065919 3.83736322 22.76390737 4.59660228 20 7 C20 3 20 3 21 1 C14.07 1 7.14 1 0 1 C0 0.67 0 0.34 0 0 Z " fill="#CDCDCD" transform="translate(332,117)"/>
<path d="M0 0 C-3.29590691 2.70329311 -6.75613519 4.41900085 -10.625 6.1875 C-11.77226562 6.71730469 -12.91953125 7.24710937 -14.1015625 7.79296875 C-17 9 -17 9 -19 9 C-19 8.34 -19 7.68 -19 7 C-18.01 7 -17.02 7 -16 7 C-16 6.34 -16 5.68 -16 5 C-12.535 4.505 -12.535 4.505 -9 4 C-9 3.34 -9 2.68 -9 2 C-5.5647952 -0.29013653 -4.014669 -0.17842973 0 0 Z " fill="#D71719" transform="translate(146,261)"/>
<path d="M0 0 C0.66 2.64 1.32 5.28 2 8 C0.02 8.33 -1.96 8.66 -4 9 C-4.33 8.34 -4.66 7.68 -5 7 C-3.35 7 -1.7 7 0 7 C0 6.01 0 5.02 0 4 C-1.0828125 4.0309375 -1.0828125 4.0309375 -2.1875 4.0625 C-4.91925138 4.00179441 -7.34256091 3.60741465 -10 3 C-6.26223701 0.50815801 -4.5227786 0 0 0 Z " fill="#CF3738" transform="translate(79,240)"/>
<path d="M0 0 C0.99 0 1.98 0 3 0 C3 0.66 3 1.32 3 2 C4.8871875 2.0309375 4.8871875 2.0309375 6.8125 2.0625 C7.52019531 2.07410156 8.22789062 2.08570313 8.95703125 2.09765625 C11.20305461 2.08263217 11.20305461 2.08263217 14 1 C14.33 1.99 14.66 2.98 15 4 C9.72 4 4.44 4 -1 4 C-0.67 2.68 -0.34 1.36 0 0 Z " fill="#FAEFEF" transform="translate(161,227)"/>
<path d="M0 0 C0.99 0 1.98 0 3 0 C3.33 2.31 3.66 4.62 4 7 C2.68 7.33 1.36 7.66 0 8 C0 7.34 0 6.68 0 6 C-0.66 6 -1.32 6 -2 6 C-2.33 6.66 -2.66 7.32 -3 8 C-2.25 2.25 -2.25 2.25 0 0 Z " fill="#E4E4E4" transform="translate(129,119)"/>
<path d="M0 0 C0.99 0.66 1.98 1.32 3 2 C3 2.66 3 3.32 3 4 C1.75823305 4.70226141 0.50614401 5.38629109 -0.75 6.0625 C-1.79414063 6.63677734 -1.79414063 6.63677734 -2.859375 7.22265625 C-5.36140628 8.1312406 -6.5332355 7.88336837 -9 7 C-8.01 7 -7.02 7 -6 7 C-5.67 6.01 -5.34 5.02 -5 4 C-3 2 -3 2 0 0 Z " fill="#EDEDED" transform="translate(256,170)"/>
<path d="M0 0 C-0.33 1.98 -0.66 3.96 -1 6 C-3.97 6 -6.94 6 -10 6 C-8.05210676 2.10421351 -4.25165502 0 0 0 Z " fill="#141414" transform="translate(76,167)"/>
<path d="M0 0 C2.66698331 0.73853737 2.66698331 0.73853737 5.5625 -0.5 C5.5625 0.49 5.5625 1.48 5.5625 2.5 C1.4419254 4.49785435 -1.88944365 4.67835515 -6.4375 4.5 C-5.7775 4.17 -5.1175 3.84 -4.4375 3.5 C-4.4375 2.51 -4.4375 1.52 -4.4375 0.5 C-2.4375 -0.5 -2.4375 -0.5 0 0 Z " fill="#E5E5E5" transform="translate(275.4375,160.5)"/>
<path d="M0 0 C2.25 0.1875 2.25 0.1875 5 1 C6.35827971 2.64639965 7.69254251 4.31295807 9 6 C11.12946603 6.86965506 11.12946603 6.86965506 13 7 C12.67 8.65 12.34 10.3 12 12 C11.319375 11.29875 10.63875 10.5975 9.9375 9.875 C7.22379838 7.14570239 4.31945276 4.68645559 1.35546875 2.234375 C0.90816406 1.82703125 0.46085937 1.4196875 0 1 C0 0.67 0 0.34 0 0 Z " fill="#EDC3C2" transform="translate(359,271)"/>
<path d="M0 0 C0 2.62113708 -0.31292445 4.50935112 -1 7 C-1.66 7 -2.32 7 -3 7 C-3.33 7.66 -3.66 8.32 -4 9 C-4.99 9.33 -5.98 9.66 -7 10 C-8.20882096 12.00016466 -8.20882096 12.00016466 -9 14 C-9.55908515 10.19822098 -9.05018324 9.06969895 -6.75 5.875 C-4.57790749 3.60417601 -2.60028057 1.73352038 0 0 Z " fill="#EFBEB7" transform="translate(47,263)"/>
<path d="M0 0 C2.76262553 0.3810518 3.84143894 0.83597132 5.8125 2.875 C6.204375 3.57625 6.59625 4.2775 7 5 C6.67 5.99 6.34 6.98 6 8 C1.3697479 6.53781513 1.3697479 6.53781513 -0.375 4 C-1 2 -1 2 0 0 Z " fill="#E7E7E7" transform="translate(257,128)"/>
<path d="M0 0 C0.763125 0.20625 1.52625 0.4125 2.3125 0.625 C2.6425 1.615 2.9725 2.605 3.3125 3.625 C1.06028616 4.99241555 -0.21307758 5.66566478 -2.875 5.4375 C-3.473125 5.169375 -4.07125 4.90125 -4.6875 4.625 C-5.0175 3.635 -5.3475 2.645 -5.6875 1.625 C-2.6875 -0.375 -2.6875 -0.375 0 0 Z " fill="#D3D2D2" transform="translate(21.6875,299.375)"/>
<path d="M0 0 C4.04256383 1.22217046 7.49288959 2.62754296 11 5 C11 5.33 11 5.66 11 6 C7.7 6.66 4.4 7.32 1 8 C1.66 6.68 2.32 5.36 3 4 C2.01 3.34 1.02 2.68 0 2 C0 1.34 0 0.68 0 0 Z " fill="#F4CDCB" transform="translate(330,259)"/>
<path d="M0 0 C-0.26171875 1.88671875 -0.26171875 1.88671875 -1 4 C-2.70703125 5.08203125 -2.70703125 5.08203125 -4.8125 5.8125 C-5.84310547 6.19341797 -5.84310547 6.19341797 -6.89453125 6.58203125 C-9.26868457 7.05333812 -10.72314894 6.75212833 -13 6 C-11.21118264 4.99491199 -9.41885304 3.99607264 -7.625 3 C-6.62726563 2.443125 -5.62953125 1.88625 -4.6015625 1.3125 C-2 0 -2 0 0 0 Z " fill="#DD1F23" transform="translate(139,244)"/>
<path d="M0 0 C0.99 0.33 1.98 0.66 3 1 C2.02133662 2.14626322 1.04205413 3.29199788 0.0625 4.4375 C-0.48277344 5.07558594 -1.02804688 5.71367187 -1.58984375 6.37109375 C-2.36795695 7.26991149 -3.15936528 8.15936528 -4 9 C-4.04080783 10.99958364 -4.04254356 13.00045254 -4 15 C-4.66 15 -5.32 15 -6 15 C-6 11.37 -6 7.74 -6 4 C-4.68 4 -3.36 4 -2 4 C-2 3.34 -2 2.68 -2 2 C-1.34 2 -0.68 2 0 2 C0 1.34 0 0.68 0 0 Z " fill="#C71C20" transform="translate(43,263)"/>
<path d="M0 0 C-0.33 1.65 -0.66 3.3 -1 5 C-4.82320557 6.42258812 -7.91281305 7.24042276 -12 7 C-3.55172414 0 -3.55172414 0 0 0 Z " fill="#E9C4C2" transform="translate(60,256)"/>
<path d="M0 0 C-1.32 1.65 -2.64 3.3 -4 5 C-6.97 4.505 -6.97 4.505 -10 4 C-10 3.01 -10 2.02 -10 1 C-8.71073008 0.63720544 -7.41846728 0.28503302 -6.125 -0.0625 C-5.40570313 -0.25972656 -4.68640625 -0.45695312 -3.9453125 -0.66015625 C-2 -1 -2 -1 0 0 Z " fill="#D7D7D5" transform="translate(50,298)"/>
<path d="M0 0 C-2.87854637 2.33088789 -5.61984828 3.83224797 -9.0625 5.1875 C-9.91972656 5.53167969 -10.77695313 5.87585938 -11.66015625 6.23046875 C-14 7 -14 7 -17 7 C-17 6.34 -17 5.68 -17 5 C-16.30132812 4.72285156 -15.60265625 4.44570313 -14.8828125 4.16015625 C-13.97273438 3.79792969 -13.06265625 3.43570312 -12.125 3.0625 C-11.22007813 2.70285156 -10.31515625 2.34320313 -9.3828125 1.97265625 C-5.86907002 0.53835809 -3.852775 -0.10138882 0 0 Z " fill="#FACFCA" transform="translate(96,264)"/>
<path d="M0 0 C0.66 0 1.32 0 2 0 C2.74813575 4.78806878 0.69491132 7.56710249 -1.80859375 11.42578125 C-2.20175781 11.94527344 -2.59492188 12.46476563 -3 13 C-3.33 13 -3.66 13 -4 13 C-4 11.35 -4 9.7 -4 8 C-3.34 8 -2.68 8 -2 8 C-2.33 7.01 -2.66 6.02 -3 5 C-1.6875 2.3125 -1.6875 2.3125 0 0 Z " fill="#E61317" transform="translate(171,233)"/>
<path d="M0 0 C-1.20381448 2.49361571 -2.45428722 4.68143083 -4 7 C-5.32 6.67 -6.64 6.34 -8 6 C-7.75 4.125 -7.75 4.125 -7 2 C-4.41847698 0.27898465 -3.15081975 0 0 0 Z " fill="#E6E6E6" transform="translate(107,122)"/>
<path d="M0 0 C1.98 0 3.96 0 6 0 C5.34 2.64 4.68 5.28 4 8 C2 6.25 2 6.25 0 4 C0 2.68 0 1.36 0 0 Z " fill="#E5E5E5" transform="translate(98,241)"/>
<path d="M0 0 C-1.75 4.875 -1.75 4.875 -4 6 C-4 5.34 -4 4.68 -4 4 C-5.65 3.67 -7.3 3.34 -9 3 C-6.38997624 -0.48003168 -4.1689578 -0.27793052 0 0 Z " fill="#D5D8D4" transform="translate(376,274)"/>
<path d="M0 0 C0.598125 0.185625 1.19625 0.37125 1.8125 0.5625 C4.16408762 1.22093687 4.16408762 1.22093687 7 0 C6.42655063 2.86724686 6.1385485 3.8614515 4 6 C3.01 6 2.02 6 1 6 C0.67 4.02 0.34 2.04 0 0 Z " fill="#EFEFEF" transform="translate(257,264)"/>
<path d="M0 0 C0 0.66 0 1.32 0 2 C-0.99 2 -1.98 2 -3 2 C-3 2.66 -3 3.32 -3 4 C-3.66 4 -4.32 4 -5 4 C-5 5.32 -5 6.64 -5 8 C-7.97 7.505 -7.97 7.505 -11 7 C-4.48275862 0 -4.48275862 0 0 0 Z " fill="#C81719" transform="translate(47,253)"/>
<path d="M0 0 C0.98484375 0.01804688 1.9696875 0.03609375 2.984375 0.0546875 C4.10585937 0.08949219 4.10585937 0.08949219 5.25 0.125 C4.59 1.775 3.93 3.425 3.25 5.125 C2.92 4.135 2.59 3.145 2.25 2.125 C-1.71 2.125 -5.67 2.125 -9.75 2.125 C-5.76219998 0.13109999 -4.27852428 -0.10186963 0 0 Z " fill="#DC3A40" transform="translate(170.75,230.875)"/>
<path d="M0 0 C-0.66 1.65 -1.32 3.3 -2 5 C-4.64 5 -7.28 5 -10 5 C-9.3125 3.0625 -9.3125 3.0625 -8 1 C-5.20402714 0.13970066 -2.92828926 0 0 0 Z " fill="#F1F1F1" transform="translate(262,203)"/>
<path d="M0 0 C4 4.625 4 4.625 4 8 C2.35 8.66 0.7 9.32 -1 10 C-0.67 6.7 -0.34 3.4 0 0 Z " fill="#FBE0DA" transform="translate(138,234)"/>
<path d="M0 0 C0.66 0.33 1.32 0.66 2 1 C-0.57784846 3.64752004 -2.91648098 5.94432065 -6 8 C-6 7.34 -6 6.68 -6 6 C-6.66 5.67 -7.32 5.34 -8 5 C-5.31158141 2.74754119 -3.35358125 1.11786042 0 0 Z " fill="#EAEAEA" transform="translate(258,304)"/>
<path d="M0 0 C3.98175544 2.10148204 6.35039045 4.36905358 9 8 C7.68 8.33 6.36 8.66 5 9 C5 7.68 5 6.36 5 5 C3.02 5 1.04 5 -1 5 C-0.34 4.67 0.32 4.34 1 4 C0.67 2.68 0.34 1.36 0 0 Z " fill="#EACACB" transform="translate(362,278)"/>
<path d="M0 0 C1.65 0.33 3.3 0.66 5 1 C3.02 4.63 1.04 8.26 -1 12 C-2.1200071 8.63997871 -1.8208325 7.36541324 -1 4 C-0.814375 3.236875 -0.62875 2.47375 -0.4375 1.6875 C-0.293125 1.130625 -0.14875 0.57375 0 0 Z " fill="#E5C2BF" transform="translate(16,272)"/>
<path d="M0 0 C-1.78881736 1.00508801 -3.58114696 2.00392736 -5.375 3 C-6.37273437 3.556875 -7.37046875 4.11375 -8.3984375 4.6875 C-11 6 -11 6 -13 6 C-12.67 5.01 -12.34 4.02 -12 3 C-11.34 3 -10.68 3 -10 3 C-10 2.34 -10 1.68 -10 1 C-3.375 -1.125 -3.375 -1.125 0 0 Z " fill="#FBD8D4" transform="translate(133,247)"/>
<path d="M0 0 C-2.42195448 2.87255066 -4.59742703 3.70838919 -8.1875 4.6875 C-9.08855469 4.93886719 -9.98960938 5.19023437 -10.91796875 5.44921875 C-11.60503906 5.63097656 -12.29210937 5.81273437 -13 6 C-12 3 -12 3 -10.0390625 1.796875 C-9.24242188 1.45140625 -8.44578125 1.1059375 -7.625 0.75 C-6.83351563 0.39421875 -6.04203125 0.0384375 -5.2265625 -0.328125 C-3 -1 -3 -1 0 0 Z " fill="#3D0303" transform="translate(123,274)"/>
<path d="M0 0 C1.8125 0.75 1.8125 0.75 2.8125 2.75 C0.8325 2.75 -1.1475 2.75 -3.1875 2.75 C-2.8575 4.07 -2.5275 5.39 -2.1875 6.75 C-3.5075 6.09 -4.8275 5.43 -6.1875 4.75 C-6.1875 3.76 -6.1875 2.77 -6.1875 1.75 C-3.9127187 0.36888278 -2.68578639 -0.30694702 0 0 Z " fill="#F0D7D6" transform="translate(129.1875,270.25)"/>
<path d="M0 0 C0.66 0 1.32 0 2 0 C1.67 1.98 1.34 3.96 1 6 C0.01 6 -0.98 6 -2 6 C-2.33 4.68 -2.66 3.36 -3 2 C-4.98 2.33 -6.96 2.66 -9 3 C-9 2.34 -9 1.68 -9 1 C-6.66705225 0.95758277 -4.33297433 0.95907063 -2 1 C-1.67 1.33 -1.34 1.66 -1 2 C-0.67 1.34 -0.34 0.68 0 0 Z " fill="#D62D2E" transform="translate(159,256)"/>
<path d="M0 0 C0.66 1.32 1.32 2.64 2 4 C1.34 4.66 0.68 5.32 0 6 C-0.70710678 7.64991582 -1.37943989 9.31562256 -2 11 C-2.99 11 -3.98 11 -5 11 C-3.77472971 6.94718288 -2.30119506 3.55639236 0 0 Z " fill="#FBD3D3" transform="translate(165,250)"/>
<path d="M0 0 C0.33 1.32 0.66 2.64 1 4 C-0.98 4.99 -0.98 4.99 -3 6 C-3 6.99 -3 7.98 -3 9 C-4.32 9.33 -5.64 9.66 -7 10 C-2.85714286 2.42857143 -2.85714286 2.42857143 0 0 Z " fill="#C11D1F" transform="translate(26,267)"/>
<path d="M0 0 C0.33 0 0.66 0 1 0 C1 2.31 1 4.62 1 7 C0.360625 7.103125 -0.27875 7.20625 -0.9375 7.3125 C-1.618125 7.539375 -2.29875 7.76625 -3 8 C-3.33 8.99 -3.66 9.98 -4 11 C-4.66 10.67 -5.32 10.34 -6 10 C-5.02526874 8.33073546 -4.04510211 6.66464358 -3.0625 5 C-2.24458984 3.6078125 -2.24458984 3.6078125 -1.41015625 2.1875 C-0.71212891 1.1046875 -0.71212891 1.1046875 0 0 Z " fill="#D7D6D7" transform="translate(309,252)"/>
<path d="M0 0 C0.33 0.99 0.66 1.98 1 3 C0.67 3.66 0.34 4.32 0 5 C-0.66 5 -1.32 5 -2 5 C-2.66 6.32 -3.32 7.64 -4 9 C-4.99 9 -5.98 9 -7 9 C-5.44499019 5.18315774 -2.96404505 2.80804268 0 0 Z " fill="#C5C5C5" transform="translate(368,134)"/>
<path d="M0 0 C2.97 0.495 2.97 0.495 6 1 C5.67 2.32 5.34 3.64 5 5 C2.36 4.67 -0.28 4.34 -3 4 C-2.01 2.68 -1.02 1.36 0 0 Z " fill="#E9E9E9" transform="translate(145,307)"/>
<path d="M0 0 C1.32 0.33 2.64 0.66 4 1 C4 1.99 4 2.98 4 4 C-0.455 4.495 -0.455 4.495 -5 5 C-4.01 4.67 -3.02 4.34 -2 4 C-0.79117904 1.99983534 -0.79117904 1.99983534 0 0 Z " fill="#F2F2F2" transform="translate(214,290)"/>
<path d="M0 0 C2.8203125 -0.29296875 2.8203125 -0.29296875 6.125 -0.1875 C7.76855469 -0.14689453 7.76855469 -0.14689453 9.4453125 -0.10546875 C10.28835937 -0.07066406 11.13140625 -0.03585937 12 0 C8.88089144 1.79275866 6.32317572 2.34290718 2.75 2.625 C1.85796875 2.69976562 0.9659375 2.77453125 0.046875 2.8515625 C-0.62859375 2.90054687 -1.3040625 2.94953125 -2 3 C-1.34 2.01 -0.68 1.02 0 0 Z " fill="#F3BCBD" transform="translate(53,275)"/>
<path d="M0 0 C2.97 0 5.94 0 9 0 C9 0.66 9 1.32 9 2 C6.75 3.125 6.75 3.125 4 4 C1.6875 3.125 1.6875 3.125 0 2 C0 1.34 0 0.68 0 0 Z " fill="#EFEEF3" transform="translate(114,248)"/>
<path d="M0 0 C3.26460973 1.80412643 4.88929795 2.83394693 7 6 C5.1875 6.6875 5.1875 6.6875 3 7 C1.25 5.5625 1.25 5.5625 0 4 C0.66 4 1.32 4 2 4 C2 3.34 2 2.68 2 2 C1.34 2 0.68 2 0 2 C0 1.34 0 0.68 0 0 Z " fill="#BF1E22" transform="translate(352,266)"/>
<path d="M0 0 C1.65 0.33 3.3 0.66 5 1 C3.25 4.875 3.25 4.875 1 6 C0.01 5.01 -0.98 4.02 -2 3 C-1.34 2.01 -0.68 1.02 0 0 Z " fill="#E4E4E4" transform="translate(110,113)"/>
<path d="M0 0 C0 0.66 0 1.32 0 2 C-0.66 2 -1.32 2 -2 2 C-2.33 2.99 -2.66 3.98 -3 5 C-5.31 5 -7.62 5 -10 5 C-3.63636364 0 -3.63636364 0 0 0 Z " fill="#FDCCCD" transform="translate(152,259)"/>
<path d="M0 0 C1.32 0 2.64 0 4 0 C4 0.66 4 1.32 4 2 C5.65 2 7.3 2 9 2 C9 2.66 9 3.32 9 4 C9.99 4.33 10.98 4.66 12 5 C11.67 5.66 11.34 6.32 11 7 C7.37 5.02 3.74 3.04 0 1 C0 0.67 0 0.34 0 0 Z " fill="#F5C4C3" transform="translate(333,253)"/>
<path d="M0 0 C1.32 0.33 2.64 0.66 4 1 C3.34 1 2.68 1 2 1 C2 1.66 2 2.32 2 3 C2.66 3 3.32 3 4 3 C4 4.98 4 6.96 4 9 C3.01 9.495 3.01 9.495 2 10 C1.34 6.7 0.68 3.4 0 0 Z " fill="#F3F3F3" transform="translate(235,217)"/>
<path d="M0 0 C1.49080078 0.02707031 1.49080078 0.02707031 3.01171875 0.0546875 C3.77097656 0.07789063 4.53023437 0.10109375 5.3125 0.125 C5.3125 0.455 5.3125 0.785 5.3125 1.125 C3.73163952 1.49004603 2.14766093 1.84160506 0.5625 2.1875 C-0.31921875 2.38472656 -1.2009375 2.58195312 -2.109375 2.78515625 C-4.67429028 3.12325872 -6.25841639 2.93658635 -8.6875 2.125 C-5.26655758 -0.15562828 -4.00562778 -0.09425007 0 0 Z " fill="#C72328" transform="translate(64.6875,290.875)"/>
<path d="M0 0 C-1.70828921 2.10633718 -2.52148416 2.93801608 -5.26171875 3.29296875 C-6.06222656 3.25816406 -6.86273438 3.22335937 -7.6875 3.1875 C-8.49574219 3.16042969 -9.30398437 3.13335937 -10.13671875 3.10546875 C-10.75160156 3.07066406 -11.36648437 3.03585937 -12 3 C-8.52582963 0.68388642 -4.04642977 -2.02321489 0 0 Z " fill="#F5C9C5" transform="translate(92,286)"/>
<path d="M0 0 C2.31 0.66 4.62 1.32 7 2 C7 2.99 7 3.98 7 5 C7.99 5.33 8.98 5.66 10 6 C9.34 6.66 8.68 7.32 8 8 C6.66372225 6.85760183 5.33104612 5.71098945 4 4.5625 C3.2575 3.92441406 2.515 3.28632813 1.75 2.62890625 C1.1725 2.09136719 0.595 1.55382812 0 1 C0 0.67 0 0.34 0 0 Z " fill="#F2BFBA" transform="translate(350,263)"/>
<path d="M0 0 C1.4540625 0.0309375 1.4540625 0.0309375 2.9375 0.0625 C3.2675 0.7225 3.5975 1.3825 3.9375 2.0625 C2.2875 2.0625 0.6375 2.0625 -1.0625 2.0625 C-1.7439823 3.95429203 -1.7439823 3.95429203 -2.0625 6.0625 C-1.4025 6.7225 -0.7425 7.3825 -0.0625 8.0625 C-1.3825 8.0625 -2.7025 8.0625 -4.0625 8.0625 C-4.10491723 5.72955225 -4.10342937 3.39547433 -4.0625 1.0625 C-3.0625 0.0625 -3.0625 0.0625 0 0 Z " fill="#ECAAA9" transform="translate(318.0625,245.9375)"/>
<path d="M0 0 C0 0.99 0 1.98 0 3 C-2.31 3.33 -4.62 3.66 -7 4 C-7 3.01 -7 2.02 -7 1 C-4 0 -4 0 0 0 Z " fill="#1A1A1A" transform="translate(57,175)"/>
<path d="M0 0 C2.31 0.33 4.62 0.66 7 1 C7.33 2.32 7.66 3.64 8 5 C5.5625 4.625 5.5625 4.625 3 4 C2.67 3.34 2.34 2.68 2 2 C1.01 2.495 1.01 2.495 0 3 C0 2.01 0 1.02 0 0 Z " fill="#EEEEEE" transform="translate(216,105)"/>
<path d="M0 0 C0.33 0 0.66 0 1 0 C1.33 3.3 1.66 6.6 2 10 C1.01 10 0.02 10 -1 10 C-1.02689216 8.52093108 -1.04634621 7.04172517 -1.0625 5.5625 C-1.07410156 4.73878906 -1.08570313 3.91507812 -1.09765625 3.06640625 C-1 1 -1 1 0 0 Z " fill="#C5D5D2" transform="translate(11,284)"/>
<path d="M0 0 C-1.43344 0.53190541 -2.87195367 1.05015258 -4.3125 1.5625 C-5.51326172 1.99755859 -5.51326172 1.99755859 -6.73828125 2.44140625 C-9 3 -9 3 -12 2 C-8.51900375 -1.48099625 -4.51091121 -1.29859565 0 0 Z " fill="#CA282D" transform="translate(92,285)"/>
<path d="M0 0 C0 3.58912412 -0.66436554 4.10857029 -3 6.6875 C-3.556875 7.31011719 -4.11375 7.93273437 -4.6875 8.57421875 C-5.120625 9.04472656 -5.55375 9.51523437 -6 10 C-6.66 9.34 -7.32 8.68 -8 8 C-5.36 5.36 -2.72 2.72 0 0 Z " fill="#212121" transform="translate(264,266)"/>
<path d="M0 0 C2.97 0.495 2.97 0.495 6 1 C6 1.99 6 2.98 6 4 C4.02 4 2.04 4 0 4 C0 2.68 0 1.36 0 0 Z " fill="#E40305" transform="translate(317,249)"/>
<path d="M0 0 C1.98 0.495 1.98 0.495 4 1 C3.34 2.65 2.68 4.3 2 6 C1.01 5.67 0.02 5.34 -1 5 C-0.67 3.35 -0.34 1.7 0 0 Z " fill="#E9E9E9" transform="translate(77,168)"/>
<path d="M0 0 C1.4540625 0.0309375 1.4540625 0.0309375 2.9375 0.0625 C2.6075 1.0525 2.2775 2.0425 1.9375 3.0625 C-0.625 4.25 -0.625 4.25 -3.0625 5.0625 C-3.625 3.125 -3.625 3.125 -4.0625 1.0625 C-3.0625 0.0625 -3.0625 0.0625 0 0 Z " fill="#E4E4E4" transform="translate(305.0625,145.9375)"/>
<path d="M0 0 C3.91402949 1.26941497 5.79072873 2.51167694 8 6 C7.01 6.33 6.02 6.66 5 7 C5 6.34 5 5.68 5 5 C4.01 4.67 3.02 4.34 2 4 C0.3125 2.4375 0.3125 2.4375 -1 1 C-0.67 0.67 -0.34 0.34 0 0 Z " fill="#D5D5D5" transform="translate(251,122)"/>
<path d="M0 0 C0.99 0.33 1.98 0.66 3 1 C2.67 1.66 2.34 2.32 2 3 C1.34 3 0.68 3 0 3 C0 3.99 0 4.98 0 6 C-1.65 6 -3.3 6 -5 6 C-3.74821404 3.49642808 -2.00018842 1.93566621 0 0 Z " fill="#F2CFD5" transform="translate(107,278)"/>
<path d="M0 0 C2.31 0 4.62 0 7 0 C6.67 0.99 6.34 1.98 6 3 C3.4375 4.1875 3.4375 4.1875 1 5 C0.67 3.35 0.34 1.7 0 0 Z " fill="#CD0910" transform="translate(108,274)"/>
<path d="M0 0 C-0.33 1.32 -0.66 2.64 -1 4 C-3.64 4 -6.28 4 -9 4 C-6.43425105 1.43425105 -3.68548192 0 0 0 Z " fill="#CA0B0D" transform="translate(110,259)"/>
<path d="M0 0 C0.33 1.32 0.66 2.64 1 4 C-1.97 4 -4.94 4 -8 4 C-2.7826087 0 -2.7826087 0 0 0 Z " fill="#DE1B1C" transform="translate(126,251)"/>
<path d="M0 0 C1.32 0 2.64 0 4 0 C3.34 1.98 2.68 3.96 2 6 C1.01 6 0.02 6 -1 6 C-0.67 4.02 -0.34 2.04 0 0 Z " fill="#E90103" transform="translate(67,245)"/>
<path d="M0 0 C0.33 0.66 0.66 1.32 1 2 C1.99 2.33 2.98 2.66 4 3 C2.75 4.5625 2.75 4.5625 1 6 C-1.1875 5.6875 -1.1875 5.6875 -3 5 C-2.01 3.35 -1.02 1.7 0 0 Z " fill="#E8E8E8" transform="translate(251,272)"/>
<path d="M0 0 C0 0.99 0 1.98 0 3 C-1.32 3 -2.64 3 -4 3 C-4 2.34 -4 1.68 -4 1 C-4.99 0.67 -5.98 0.34 -7 0 C-4.3333581 -1.33332095 -2.83319697 -0.67102033 0 0 Z " fill="#D20D0C" transform="translate(348,262)"/>
<path d="M0 0 C1.32 0 2.64 0 4 0 C4.99 1.98 5.98 3.96 7 6 C5.68 6.33 4.36 6.66 3 7 C2.67 6.01 2.34 5.02 2 4 C2.33 3.34 2.66 2.68 3 2 C2.01 2 1.02 2 0 2 C0 1.34 0 0.68 0 0 Z " fill="#D5D7D4" transform="translate(89,256)"/>
<path d="M0 0 C0.99 0.33 1.98 0.66 3 1 C2.67 2.32 2.34 3.64 2 5 C0.68 4.67 -0.64 4.34 -2 4 C-2 3.01 -2 2.02 -2 1 C-1.34 0.67 -0.68 0.34 0 0 Z " fill="#E4E1E6" transform="translate(334,248)"/>
<path d="M0 0 C0.66 0.66 1.32 1.32 2 2 C1.67 2.33 1.34 2.66 1 3 C1.66 3.33 2.32 3.66 3 4 C3 4.66 3 5.32 3 6 C1.35 6 -0.3 6 -2 6 C-2.33 5.34 -2.66 4.68 -3 4 C-2.01 2.68 -1.02 1.36 0 0 Z " fill="#F8F8F8" transform="translate(239,176)"/>
<path d="M0 0 C3.3 0.66 6.6 1.32 10 2 C10 2.33 10 2.66 10 3 C4.06 3.495 4.06 3.495 -2 4 C-1.34 2.68 -0.68 1.36 0 0 Z " fill="#E8E8E8" transform="translate(303,105)"/>
<path d="M0 0 C-2 2 -2 2 -4.3828125 2.1953125 C-5.28773437 2.17210937 -6.19265625 2.14890625 -7.125 2.125 C-8.49011719 2.09792969 -8.49011719 2.09792969 -9.8828125 2.0703125 C-10.58148438 2.04710937 -11.28015625 2.02390625 -12 2 C-8.63758153 -1.36241847 -4.39594827 -1.5216744 0 0 Z " fill="#D61316" transform="translate(65,248)"/>
<path d="M0 0 C0.433125 0.61875 0.86625 1.2375 1.3125 1.875 C2.99740483 4.2197245 2.99740483 4.2197245 6 6 C3.69 5.67 1.38 5.34 -1 5 C-1.33 4.01 -1.66 3.02 -2 2 C-1.34 1.34 -0.68 0.68 0 0 Z " fill="#E6EBEA" transform="translate(318,236)"/>
<path d="M0 0 C3.465 1.98 3.465 1.98 7 4 C6.34 4.66 5.68 5.32 5 6 C5 5.34 5 4.68 5 4 C3.35 4 1.7 4 0 4 C0 2.68 0 1.36 0 0 Z " fill="#F0C5C4" transform="translate(355,273)"/>
<path d="M0 0 C-1.33332095 3.99996286 -3.4957827 4.83782337 -7 7 C-7.66 6.67 -8.32 6.34 -9 6 C-7.8803014 4.99406757 -6.7540588 3.9954151 -5.625 3 C-4.68527344 2.1646875 -4.68527344 2.1646875 -3.7265625 1.3125 C-2 0 -2 0 0 0 Z " fill="#BE1F25" transform="translate(36,260)"/>
<path d="M0 0 C-2.31 1.65 -4.62 3.3 -7 5 C-6.67 3.35 -6.34 1.7 -6 0 C-3 -1 -3 -1 0 0 Z " fill="#E8B9B5" transform="translate(37,259)"/>
<path d="M0 0 C2 3.875 2 3.875 2 5 C0.02 5 -1.96 5 -4 5 C-3.34 4.67 -2.68 4.34 -2 4 C-2 3.01 -2 2.02 -2 1 C-1.34 0.67 -0.68 0.34 0 0 Z " fill="#F3F3F3" transform="translate(273,160)"/>
<path d="M0 0 C-1.0625 1.5625 -1.0625 1.5625 -3 3 C-6.6875 2.6875 -6.6875 2.6875 -10 2 C-6.3558226 -0.4294516 -4.28758728 -0.16179575 0 0 Z " fill="#E8E8E8" transform="translate(309,121)"/>
</svg>
